<?xml version="1.0" encoding="UTF-8"?>
<!DOCTYPE svg PUBLIC "-//W3C//DTD SVG 1.1//EN" "http://www.w3.org/Graphics/SVG/1.1/DTD/svg11.dtd">
<!-- Creator: CorelDRAW 2018 (64-Bit Evaluation Version) -->
<svg xmlns="http://www.w3.org/2000/svg" xml:space="preserve" width="27.164mm" height="27.164mm" version="1.1" style="shape-rendering:geometricPrecision; text-rendering:geometricPrecision; image-rendering:optimizeQuality; fill-rule:evenodd; clip-rule:evenodd"
viewBox="0 0 2716.4 2716.4"
 xmlns:xlink="http://www.w3.org/1999/xlink">
 <defs>
  <style type="text/css">
   <![CDATA[
    .fil4 {fill:#FEFEFE}
    .fil2 {fill:#E8ECF3;fill-rule:nonzero}
    .fil0 {fill:#A8A8A6;fill-rule:nonzero}
    .fil3 {fill:#A9B6D0;fill-rule:nonzero}
    .fil1 {fill:#A3B2CD;fill-rule:nonzero}
   ]]>
  </style>
 </defs>
 <g id="Layer_x0020_1">
  <metadata id="CorelCorpID_0Corel-Layer"/>
  <g id="_2695574101440">
   <path class="fil0" d="M2641.78 1358.21c0,708.9 -574.69,1283.57 -1283.6,1283.57 -708.91,0 -1283.57,-574.67 -1283.57,-1283.57 0,-708.91 574.66,-1283.59 1283.57,-1283.59 708.91,0 1283.6,574.68 1283.6,1283.59z"/>
   <path class="fil1" d="M1332 1422.89c-0.86,-6.15 -1.72,-12.28 -2.59,-18.46 2.5,-37.52 -2.98,-76.2 16.23,-111.25 6.07,5.21 12.12,10.43 18.2,15.65 40.17,33.22 6.43,76.46 15.5,113.9 -5.16,0.29 -10.31,0.45 -15.5,0.52 -10.62,-0.13 -21.22,-0.23 -31.84,-0.36z"/>
   <path class="fil2" d="M1386.76 1328.54c-8.42,20.93 -16.83,41.9 -25.22,62.83 -11.3,-22.08 -72.36,-44.11 -0.09,-66.31 8.44,1.15 16.89,2.3 25.31,3.48z"/>
   <path class="fil3" d="M1333.67 1292.79c10.62,0.14 21.25,0.26 31.84,0.36 5.22,16.32 10.4,32.61 15.61,48.94 -17.34,11.45 -0.76,21.73 1.16,32.51 -5.64,5.63 -11.26,11.26 -16.87,16.93 -13.5,6.59 -16.09,18.72 -16.32,32.11 -32.42,-40.4 -9.72,-87.29 -15.42,-130.85z"/>
   <path class="fil4" d="M1145.46 1364.61l0 786.16c0,11.31 9.18,20.5 20.48,20.5l291.97 0c11.29,0 20.45,-9.19 20.45,-20.5l0 -798.96 211.67 0c10.62,0 19.49,-8.16 20.39,-18.75l20.34 -240.74c1.03,-11.93 -8.38,-22.21 -20.38,-22.21l-232.02 0 0 -170.8c0,-40 32.45,-72.46 72.48,-72.46l163.12 0c11.33,0 20.49,-9.19 20.49,-20.47l0 -240.74c0,-11.34 -9.16,-20.48 -20.49,-20.48l-275.61 0c-161.74,0 -292.89,131.12 -292.89,292.87l0 232.08 -145.97 0c-11.3,0 -20.49,9.19 -20.49,20.49l0 240.73c0,11.29 9.19,20.48 20.49,20.48l145.97 0 0 12.8z"/>
  </g>
 </g>
</svg>
