<?xml version="1.0" encoding="UTF-8"?>
<!DOCTYPE svg PUBLIC "-//W3C//DTD SVG 1.1//EN" "http://www.w3.org/Graphics/SVG/1.1/DTD/svg11.dtd">
<!-- Creator: CorelDRAW 2018 (64-Bit Evaluation Version) -->
<svg xmlns="http://www.w3.org/2000/svg" xml:space="preserve" width="27.164mm" height="27.164mm" version="1.1" style="shape-rendering:geometricPrecision; text-rendering:geometricPrecision; image-rendering:optimizeQuality; fill-rule:evenodd; clip-rule:evenodd"
viewBox="0 0 2716.4 2716.4"
 xmlns:xlink="http://www.w3.org/1999/xlink">
 <defs>
  <style type="text/css">
   <![CDATA[
    .fil1 {fill:#FEFEFE;fill-rule:nonzero}
    .fil0 {fill:#A8A8A6;fill-rule:nonzero}
   ]]>
  </style>
 </defs>
 <g id="Layer_x0020_1">
  <metadata id="CorelCorpID_0Corel-Layer"/>
  <g id="_2695793866864">
   <path class="fil0" d="M2641.8 1358.18c0,708.92 -574.7,1283.62 -1283.59,1283.62 -708.92,0 -1283.61,-574.7 -1283.61,-1283.62 0,-708.91 574.69,-1283.58 1283.61,-1283.58 708.89,0 1283.59,574.67 1283.59,1283.58z"/>
   <path class="fil1" d="M1812.61 811.43c-55.09,0 -99.73,44.65 -99.73,99.69 0,55.08 44.64,99.73 99.73,99.73 55.04,0 99.69,-44.65 99.69,-99.73 0,-55.04 -44.65,-99.69 -99.69,-99.69z"/>
   <path class="fil1" d="M1369.25 1626.5c-147.96,0 -268.32,-120.36 -268.32,-268.32 0,-147.95 120.36,-268.32 268.32,-268.32 147.99,0 268.32,120.37 268.32,268.32 0,147.96 -120.33,268.32 -268.32,268.32zm0 -687.22c-230.97,0 -418.86,187.94 -418.86,418.9 0,230.98 187.89,418.9 418.86,418.9 230.97,0 418.9,-187.92 418.9,-418.9 0,-230.96 -187.93,-418.9 -418.9,-418.9z"/>
   <path class="fil1" d="M1022.72 667.73c-193.5,0 -350.9,157.4 -350.9,350.9l0 679.12c0,193.5 157.4,350.89 350.9,350.89l679.08 0c193.5,0 350.93,-157.39 350.93,-350.89l0 -679.12c0,-193.5 -157.43,-350.9 -350.93,-350.9l-679.08 0zm679.08 1540.93l-679.08 0c-281.71,0 -510.92,-229.19 -510.92,-510.91l0 -679.12c0,-281.73 229.21,-510.91 510.92,-510.91l679.08 0c281.74,0 510.94,229.18 510.94,510.91l0 679.12c0,281.72 -229.2,510.91 -510.94,510.91z"/>
  </g>
 </g>
</svg>
