<?xml version="1.0" encoding="UTF-8"?>
<!DOCTYPE svg PUBLIC "-//W3C//DTD SVG 1.1//EN" "http://www.w3.org/Graphics/SVG/1.1/DTD/svg11.dtd">
<!-- Creator: CorelDRAW 2018 (64-Bit Evaluation Version) -->
<svg xmlns="http://www.w3.org/2000/svg" xml:space="preserve" width="27.164mm" height="27.164mm" version="1.1" style="shape-rendering:geometricPrecision; text-rendering:geometricPrecision; image-rendering:optimizeQuality; fill-rule:evenodd; clip-rule:evenodd"
viewBox="0 0 2716.4 2716.4"
 xmlns:xlink="http://www.w3.org/1999/xlink">
 <defs>
  <style type="text/css">
   <![CDATA[
    .fil2 {fill:#FEFEFE}
    .fil1 {fill:#FEFEFE;fill-rule:nonzero}
    .fil0 {fill:#A8A8A6;fill-rule:nonzero}
   ]]>
  </style>
 </defs>
 <g id="Layer_x0020_1">
  <metadata id="CorelCorpID_0Corel-Layer"/>
  <g id="_2695793855888">
   <path class="fil0" d="M2641.8 1358.21c0,708.91 -574.7,1283.59 -1283.6,1283.59 -708.91,0 -1283.6,-574.68 -1283.6,-1283.59 0,-708.92 574.69,-1283.61 1283.6,-1283.61 708.9,0 1283.6,574.69 1283.6,1283.61z"/>
   <path class="fil1" d="M2137.8 863.18c-50.23,22.71 -105.5,36.51 -159.7,45.6 25.73,-4.33 63.66,-50.89 78.82,-69.74 23.13,-28.74 42.37,-61.48 53.18,-96.85 1.37,-2.75 2.44,-6.23 -0.32,-8.32 -3.48,-1.38 -5.72,-0.66 -8.47,0.71 -60.51,32.41 -123.09,55.95 -189.69,72.59 -5.54,1.37 -9.62,0 -13.09,-3.47 -5.52,-6.23 -10.71,-12.08 -16.59,-16.95 -27.98,-23.81 -58.02,-42.5 -91.9,-56.3 -44.46,-18.15 -93.04,-25.83 -140.94,-22.69 -46.59,3.01 -92.35,16.16 -133.71,37.76 -41.44,21.64 -78.42,51.76 -107.87,88.12 -30.46,37.56 -52.92,81.95 -64.42,128.99 -11.11,45.43 -10.19,90.36 -3.42,136.25 1.03,7.63 0.35,8.64 -6.55,7.63 -260.55,-38.8 -476.55,-132.02 -651.87,-331.82 -7.61,-8.68 -11.75,-8.68 -17.97,0.66 -76.73,114.99 -39.51,299.78 56.34,390.58 12.78,12.1 25.9,24.2 40.06,35.23 -5.17,1.06 -68.95,-5.85 -125.79,-35.23 -7.61,-4.83 -11.42,-2.04 -12.09,6.56 -0.72,12.45 0.34,23.87 2.05,37.36 14.72,116.58 95.45,224.41 206.02,266.45 13.13,5.54 27.64,10.38 41.79,12.8 -25.18,5.52 -51.13,9.48 -123.38,3.82 -8.98,-1.73 -12.42,2.75 -8.98,11.38 54.28,147.96 171.47,192.01 259.21,217.1 11.76,2.05 23.51,2.05 35.28,4.8 -0.69,1.04 -1.4,1.04 -2.07,2.07 -29.12,44.39 -130.03,77.43 -177.03,93.84 -85.46,29.86 -178.52,43.31 -268.86,34.41 -14.45,-2.12 -17.49,-1.95 -21.4,0 -3.98,2.43 -0.5,5.88 4.13,9.66 18.33,12.1 36.98,22.82 56,33.19 57.37,30.4 117.17,54.63 179.72,71.88 322.97,89.19 686.8,23.65 929.3,-217.27 190.44,-189.25 257.2,-450.18 257.2,-711.42 0,-10.25 12.07,-15.92 19.25,-21.29 49.55,-37.22 88.93,-81.77 125.89,-131.53 8.31,-11.18 7.8,-21.13 7.8,-25.19 0,-0.7 0,-1.37 0,-1.37 0,-4.2 0.51,-2.92 -5.93,0z"/>
   <path class="fil2" d="M1032.23 2003.73c133.94,0 6.43,0 0,0 17.63,0 -0.71,0 0,0z"/>
   <path class="fil2" d="M1032.23 2003.73c-2.07,0.16 -26.09,0 0,0 0,0 -4.18,0 0,0z"/>
   <path class="fil2" d="M1085.46 2005.14c0,-2.68 28.01,0 0,0 0,-1.41 3.44,0 0,0z"/>
   <path class="fil2" d="M1644.67 709.01c-1.73,1.37 -4.14,1.37 -6.54,0 2.4,0 4.81,0 6.54,0z"/>
  </g>
 </g>
</svg>
