<?xml version="1.0" encoding="UTF-8"?>
<!DOCTYPE svg PUBLIC "-//W3C//DTD SVG 1.1//EN" "http://www.w3.org/Graphics/SVG/1.1/DTD/svg11.dtd">
<!-- Creator: CorelDRAW 2019 (64-Bit Evaluation Version) -->
<svg xmlns="http://www.w3.org/2000/svg" xml:space="preserve" width="40.299mm" height="40.299mm" version="1.1" style="shape-rendering:geometricPrecision; text-rendering:geometricPrecision; image-rendering:optimizeQuality; fill-rule:evenodd; clip-rule:evenodd"
viewBox="0 0 4029.9 4029.9"
 xmlns:xlink="http://www.w3.org/1999/xlink">
 <defs>
  <style type="text/css">
   <![CDATA[
    .fil0 {fill:#FEFEFE}
   ]]>
  </style>
 </defs>
 <g id="Layer_x0020_1">
  <metadata id="CorelCorpID_0Corel-Layer"/>
  <path class="fil0" d="M2014.84 0.12c938.4,0 1727.17,641.81 1951.2,1510.35l-339.76 0c-214.44,-686.37 -855.05,-1184.7 -1612.01,-1184.7 -871.77,0 -1589.41,660.96 -1679.19,1508.97l336.58 0c88.19,-662.5 655.48,-1173.76 1342.07,-1173.76 569.39,0 1056.7,351.59 1256.79,849.49l-367.9 0c-176.97,-309.95 -510.61,-518.93 -893.01,-518.93 -567.44,0 -1027.62,460.18 -1027.62,1027.62 0,567.46 460.18,1027.63 1027.62,1027.63 567.46,0 1027.63,-460.17 1027.63,-1027.63 0,-62.91 -5.69,-124.49 -16.52,-184.28l1000.94 0c5.27,59.38 8.13,119.45 8.13,180.19 0,1112.64 -902.31,2014.95 -2014.95,2014.95 -951.35,0 -1748.81,-659.72 -1960.04,-1546.5l337 0c203.31,704.37 852.74,1219.73 1622.47,1219.73 883.78,0 1609.08,-679.3 1682.5,-1544.1l-336.61 0c-71.98,679.99 -647.38,1209.99 -1346.43,1209.99 -699.02,0 -1274.4,-529.97 -1346.41,-1209.93l0 -0.1 -662.24 0c-3.36,-47.59 -5.19,-95.6 -5.19,-144.04 0,-1112.64 902.31,-2014.95 2014.95,-2014.95zm-169.31 1117.89l324.41 0 0 1770.41 -324.41 0 0 -1770.41z"/>
 </g>
</svg>
