<?xml version="1.0" encoding="UTF-8"?>
<!DOCTYPE svg PUBLIC "-//W3C//DTD SVG 1.1//EN" "http://www.w3.org/Graphics/SVG/1.1/DTD/svg11.dtd">
<!-- Creator: CorelDRAW 2019 (64-Bit Evaluation Version) -->
<svg xmlns="http://www.w3.org/2000/svg" xml:space="preserve" width="1.7257in" height="1.7202in" version="1.1" style="shape-rendering:geometricPrecision; text-rendering:geometricPrecision; image-rendering:optimizeQuality; fill-rule:evenodd; clip-rule:evenodd"
viewBox="0 0 1725.03 1719.53"
 xmlns:xlink="http://www.w3.org/1999/xlink">
 <defs>
  <style type="text/css">
   <![CDATA[
    .fil0 {fill:#232323}
   ]]>
  </style>
 </defs>
 <g id="Layer_x0020_1">
  <metadata id="CorelCorpID_0Corel-Layer"/>
  <path class="fil0" d="M1716.78 1645.24l-396.18 -396.18c115.55,-132.06 187.08,-308.14 187.08,-495.23 0,-401.68 -352.16,-753.84 -753.84,-753.84 -418.19,0 -753.84,335.65 -753.84,753.84 0,418.19 335.65,753.84 753.84,753.84 192.59,0 363.17,-71.53 500.73,-192.59l396.18 396.18c11.01,11.01 27.51,11.01 38.52,0l27.51 -27.51c11,-11 11,-27.51 0,-38.52l0 0zm-962.94 -236.61c-363.16,0 -660.3,-297.13 -660.3,-654.8 0,-363.16 297.13,-660.3 660.3,-660.3 352.16,0 660.3,308.14 660.3,660.3 -5.5,363.17 -297.13,654.8 -660.3,654.8z"/>
 </g>
</svg>
