<?xml version="1.0" encoding="UTF-8"?>
<!DOCTYPE svg PUBLIC "-//W3C//DTD SVG 1.1//EN" "http://www.w3.org/Graphics/SVG/1.1/DTD/svg11.dtd">
<!-- Creator: CorelDRAW 2019 (64-Bit Evaluation Version) -->
<svg xmlns="http://www.w3.org/2000/svg" xml:space="preserve" width="40.299mm" height="40.299mm" version="1.1" style="shape-rendering:geometricPrecision; text-rendering:geometricPrecision; image-rendering:optimizeQuality; fill-rule:evenodd; clip-rule:evenodd"
viewBox="0 0 4029.9 4029.9"
 xmlns:xlink="http://www.w3.org/1999/xlink">
 <defs>
  <style type="text/css">
   <![CDATA[
    .fil0 {fill:#FEFEFE}
   ]]>
  </style>
 </defs>
 <g id="Layer_x0020_1">
  <metadata id="CorelCorpID_0Corel-Layer"/>
  <path class="fil0" d="M1792.01 0.11c-988.16,0 -1792.14,803.98 -1792.14,1792.14 0,988.21 803.98,1792.14 1792.14,1792.14 434.68,0 833.66,-155.58 1144.28,-413.94l850.73 850.73c3.1,3.1 6.29,6.04 9.56,8.85l233.21 -233.21c-2.8,-3.27 -5.75,-6.46 -8.85,-9.56l-850.73 -850.73c258.35,-310.63 413.94,-709.6 413.94,-1144.28 0,-988.16 -803.93,-1792.14 -1792.14,-1792.14zm0 3253.43c-805.75,0 -1461.28,-655.54 -1461.28,-1461.28 0,-805.75 655.53,-1461.29 1461.28,-1461.29 805.75,0 1461.28,655.53 1461.28,1461.28 0,805.75 -655.54,1461.29 -1461.28,1461.29z"/>
 </g>
</svg>
